<?xml version="1.0" encoding="UTF-8" standalone="no"?>
<!DOCTYPE svg PUBLIC "-//W3C//DTD SVG 1.1//EN" "http://www.w3.org/Graphics/SVG/1.1/DTD/svg11.dtd">
<svg width="100%" height="100%" viewBox="0 0 512 468" version="1.1" xmlns="http://www.w3.org/2000/svg" xmlns:xlink="http://www.w3.org/1999/xlink" xml:space="preserve" xmlns:serif="http://www.serif.com/" style="fill-rule:evenodd;clip-rule:evenodd;stroke-linejoin:round;stroke-miterlimit:2;">
    <g transform="matrix(7.31429,0,0,7.3131,-219.349,-4168.47)">
        <path d="M48.738,608.995C50.874,615.94 57.346,620.995 64.989,620.995C70.179,620.995 74.828,618.664 77.947,614.995L92.905,614.995C88.513,626.118 77.664,633.995 64.989,633.995C50.135,633.995 37.789,623.176 35.405,608.995L30.007,608.995L30.007,606.995L35.138,606.995C35.072,606.333 35.028,605.667 35.006,604.995L29.989,604.995L29.989,602.995L35.006,602.995C35.028,602.322 35.072,601.655 35.138,600.995L29.989,600.995L29.989,598.995L35.403,598.995L32.989,570L51.846,577.024C55.815,575.084 60.276,573.995 64.989,573.995C69.702,573.995 74.163,575.084 78.132,577.024L96.989,570L94.575,598.995L99.972,598.995L99.972,600.995L94.841,600.995C94.906,601.656 94.951,602.323 94.973,602.995L99.972,602.995L99.972,604.995L94.973,604.995C94.951,605.668 94.906,606.335 94.841,606.995L99.989,606.995L99.989,608.995L48.738,608.995ZM81.241,598.995L48.738,598.995C50.874,592.05 57.346,586.995 64.989,586.995C72.632,586.995 79.104,592.05 81.241,598.995Z" style="fill:rgb(62,62,62);"/>
    </g>
</svg>
